<svg xmlns="http://www.w3.org/2000/svg" viewBox="0 0 313.69 140.81"><defs><style>.cls-1{fill:#34b44a;}.cls-2,.cls-3{fill:#fff;stroke:#179647;stroke-miterlimit:10;}.cls-2{fill-rule:evenodd;}.cls-4{fill:#e31e26;}.cls-5{fill:#253c97;}</style></defs><g id="Layer_2" data-name="Layer 2"><g id="Layer_1-2" data-name="Layer 1"><path class="cls-1" d="M135.57,34.61l-17.81,18.9H73.33L71.7,63h54.74L109.72,80.66H68.55l-4.67,26.61H41.29L54.22,34.61Z"/><path class="cls-1" d="M206.06,88.59l-17.92,18.68H124l12.92-72.66h22.38l-9.56,54Z"/><path class="cls-1" d="M259.28,63.61q11.84,0,18,4.18t6.14,12.33a29.4,29.4,0,0,1-2,10.86,21.37,21.37,0,0,1-6.24,8.63,30.11,30.11,0,0,1-11.08,5.65,58.58,58.58,0,0,1-16.46,2H180l17.7-18.68h55.07q4.56,0,6.62-1.52a5.42,5.42,0,0,0,2.07-4.67q0-4.35-6.84-4.35H215q-12.37,0-18.14-4.78a15.66,15.66,0,0,1-5.75-12.7,26.65,26.65,0,0,1,2-10.27,21.09,21.09,0,0,1,6.25-8.25,30.52,30.52,0,0,1,11-5.49,59.18,59.18,0,0,1,16.29-2h63.11l-17.82,18.9H221.48q-4.56,0-6.63,1.35t-2.06,4.62q0,4.13,7,4.13Z"/><path class="cls-2" d="M57.85,82.5A8.69,8.69,0,0,0,57.34,86c.09,2-.66,6.46-1.52,7.11s-2.37,1.07-2.59,2.43.82,2.38,1,3,1,.81,1.18,3.08-.08,3.66.88,3.69a2.59,2.59,0,0,0,2.26-2.63c.07-1.6-.16-4.22,0-4.87a12.12,12.12,0,0,0,.26-2.78c0-1.1,2.6-6,3.4-7.27a20.48,20.48,0,0,0,1.94-5.34,6.93,6.93,0,0,1,1-2.59c.27-.37.6-2.89.88-3.67s1.69-3.66,1.86-4.4l.23-1s1.11-.34,1.29.14.28,3.25.87,3.95a38.71,38.71,0,0,0,5.18,3.83A3.48,3.48,0,0,1,77,81.72c-.08.93-.22,1.38,0,1.65s1.37.06,2.22.14a18.6,18.6,0,0,1,2.32.46c.94.2,2,.31,1.92-.29s-1.45-1.79-2-2.45-.94-1.25-1.31-1.39-3.77-4-4-5.22S73,70.9,73,69.13s-.32-2.56-1-3.06-2.17-1.67-2.17-1.67A1.52,1.52,0,0,0,70.57,63c.07-1.17,0-1.53.13-2.34s.56-1,1.21-1,1.14-.62,1.49-.88a13.82,13.82,0,0,0,2.38-1.64c.46-.59.13-2.43.11-2.87a10.1,10.1,0,0,0,0-1.68c-.12-.28-.08-.28.12-.33s.21-.35.28-.59.06-.45.21-.52,1.1-.25,1.08-.75.45-3.71-1.69-4.7S72.15,46.83,72,47.16s-.22.47-.48.48a7.43,7.43,0,0,1-2.21-1.71,3.47,3.47,0,0,0-.64-1.19c-.28-.25-.5-.36-.54-.74a2.85,2.85,0,0,0-1-1.55,19.58,19.58,0,0,1-3-3.6.86.86,0,0,0-.54-.6c-.18-.09-.11-.2-.21-.25s-.26,0-.31-.11a1.37,1.37,0,0,1-.05-.32.71.71,0,0,1-.71-.13,8.41,8.41,0,0,1-1.1-2A17.34,17.34,0,0,0,59,32.56a7,7,0,0,1-1.37-.9A3.48,3.48,0,0,0,56.25,31c-.14,0-.84.09-1,.1a1.16,1.16,0,0,1-.65-.19,2.86,2.86,0,0,0-1.37-1.1,2.28,2.28,0,0,1-1.46-1.16c-.07-.32-.31-.71-.46-.49a1.36,1.36,0,0,0,0,.77l.12.38,0,.14s-.56-.26-.59-.52-.06-.78-.06-.78l-.16-.5-.45-.17-.15.32a.31.31,0,0,0-.36,0,.6.6,0,0,0-.14.43l0,.4-.22.07L49,29s0,.57,0,.69.31,1,.31,1l.27.39a4.55,4.55,0,0,1-.83.22c-.24,0-.44.4-.34.54a1.61,1.61,0,0,0,.87.38,8,8,0,0,1,1.36.4A4.75,4.75,0,0,0,52,33a3.17,3.17,0,0,1,1,0c.2.09.81.46.8.67a2.68,2.68,0,0,1-.08.46s.27,1,.55,1.17a5.07,5.07,0,0,1,1.47.77c.26.31,1.67,1.24,1.82,1.55s1.67,2.42,2,2.73a3.14,3.14,0,0,1,.56.76c.09.18,2.19,3.72,2.48,4.44a21.76,21.76,0,0,1-.22,5.62c-.17.31-.38,1-.58,1a.61.61,0,0,1-.6-.46,5.55,5.55,0,0,0-.31-1.88,2.85,2.85,0,0,1-.33-1.39c0-.36-.42-.36-.67-.17a.87.87,0,0,0-.25.8,5.51,5.51,0,0,1,.05.6s-1.46-2-1.57-2.21-.57-.59-.68-.41a.89.89,0,0,0-.13.67c.06.16.25.72.25.72l.17.27-.07.23-.09.24,0,.28-.12.13-.29.19V50l0,.24,0,.32,0,.47s.07.18,0,.18-.42-.36-.43-.46a1.35,1.35,0,0,0-.18-.38l-.3-.11-.27,0a1.31,1.31,0,0,0,.27,1,12.45,12.45,0,0,1,1.27,1.39,5.87,5.87,0,0,0,.83.83l.3.13,0,.22.15.09.36.31.11.25v.24l0,.39.09.62.13.33s-.11,1-.21,1.6-3.39,4.91-1.87,7.7,2.34,2.83,2.34,2.83.62-.29.68.2-.48,1.75-.58,3.09a31.69,31.69,0,0,0,.32,5.22A8.37,8.37,0,0,1,60,80c-.26.45-1.71,2.26-1.71,2.26l-.43.23Z"/><path class="cls-3" d="M86.27,71.13a4.74,4.74,0,1,1-5.88,3.23A4.74,4.74,0,0,1,86.27,71.13Z"/><path class="cls-3" d="M183.92,102.26a17.65,17.65,0,0,0,.15-3.3s-.49-3.59,3.21-2.06c.15.07,1.14-1,1.26-1.13a15.61,15.61,0,0,0,3-4s.25-1.23,4-3.15c-.17-.23-.34-.45-.51-.69a.64.64,0,0,1-.08-.64,20.11,20.11,0,0,1,3.67-4.93c.17-.28.33-.56.51-.84a6,6,0,0,1,1.72-2.83s-3.79-2.89-.87-8.2c0,.07-.42-.21-.44-.22a1.08,1.08,0,0,1-.35-1,6,6,0,0,1,1.64-2.71,7.45,7.45,0,0,1,1.08-4.8,4.73,4.73,0,0,1-.23-3.17c-1.35-.31-2.56.73-3.55,1.49A5.16,5.16,0,0,0,198,61a5.82,5.82,0,0,1-.29.83,4.29,4.29,0,0,0-.61,1.93,4.91,4.91,0,0,0,1,2,16.36,16.36,0,0,1,1,1.91c.43,1-.66.5-1,0-.44-.66-.87-1.64-1.48-.41a.66.66,0,0,1,.16,1c-.08.11.83,1.13,0,1.17-.29,0-.63-.72-.79-1A2,2,0,0,1,194,67.22,1.31,1.31,0,0,1,194.3,66c.25-.36.56-.6.63-1.06.16-1-.36-2-.48-3a4.39,4.39,0,0,1,.58-2.7,5.08,5.08,0,0,1,1.69-1.73c.28-.13-.39-1.48-.41-1.63-.31-1.79,4.1-3.54,5.28-4.05a8.22,8.22,0,0,1,1.8-.58,3.94,3.94,0,0,1,.77,0c1.53-.42,3.4-.51,4.68-1a5.15,5.15,0,0,0-.06-1.62,1.76,1.76,0,0,1,.08-2.19,4,4,0,0,0,0-.69,4.91,4.91,0,0,1,.35-1.56,2.89,2.89,0,0,1,3.29-1.63,3.13,3.13,0,0,1,2.4,1.88,5.22,5.22,0,0,1,.09,2.69s.59.14,0,1.51a1,1,0,0,1-.87.82,19.07,19.07,0,0,1-.64,2.71,15.5,15.5,0,0,1,4.07,2.32s1.82.7,1.83,4.61a2.81,2.81,0,0,1,.2,1.26s.75.31.42.84c0,0,.27.72,0,1,0,0,.2.55-.12.81a1.34,1.34,0,0,1,.25,1.62,1.79,1.79,0,0,1-.07,2.23c-.51.73-1.3,2-2.35,1.57s-1.19-1.82-1.23-2.76a6.13,6.13,0,0,1-1.06-2.09A4.18,4.18,0,0,0,213.82,66a7.92,7.92,0,0,1-1.36,3.29s.19,3.57-.67,4.17a8.72,8.72,0,0,1-.91,3.31s.14,1.8,1,2.32c1,.61.84,2.68.51,3.54a10.56,10.56,0,0,1-1.81,2.6,7.12,7.12,0,0,0-1.41,3c-.47,1.06-1,2.1-1.48,3.15-.58,1.2-1.36,2.3-2,3.48-.45.88-1.24,2.53-.82,3.55a2.14,2.14,0,0,1-.06,1.6,1.56,1.56,0,0,1,.08,1.32c0,.16.62.91.69,1.1.3.89-.43,1.16-1.21,1.07a5.07,5.07,0,0,1-2.19-.62,2.55,2.55,0,0,1-.69-.66c-.09-.13-.46-1.1-.49-1.1a1,1,0,0,1-.78-1.55s0-.79,1.27-2.29a8.08,8.08,0,0,0,1.13-3.34s1-4.19,1.81-6.43a17.21,17.21,0,0,1-3.53,2.9,16.63,16.63,0,0,1-2.13,1.27.66.66,0,0,1-.25,0l-.63.64L196,94.2a21.82,21.82,0,0,1-5.75,4.38l-1.08,1L188,101.07s.35.63-.61,1.55a7.11,7.11,0,0,0-1.14,1.83,8.92,8.92,0,0,1-.47,2.14c-.2.36-.65,1-1.14,1-.65,0-1.37-1.56-1.46-2.09A6.09,6.09,0,0,1,183.92,102.26Z"/><circle class="cls-3" cx="215.71" cy="97.62" r="4.46" transform="translate(7.05 209.52) rotate(-52.55)"/><path id="DownCurve" class="cls-4" d="M170.1,128.72C94.84,145.39,28.09,133,21,101.05c-3.1-14,5.78-29.46,23.08-43.78l1.28-7.19C13.91,69.31-3.79,90.88.69,109c8,32.51,84.46,41.59,170.71,20.28a407.65,407.65,0,0,0,50.72-16h-2A310.5,310.5,0,0,1,170.1,128.72Z"/><path id="UpperCurve" class="cls-5" d="M313,31.81C305-.71,228.54-9.79,142.29,11.53A407,407,0,0,0,88.9,28.6h5.25A310.51,310.51,0,0,1,144.47,13C209.35-1.36,267.9,5.86,287.35,28.6a27.88,27.88,0,0,1,5.93,10.94c.1.38.2.76.28,1.14,1.95,8.83-.85,18.23-7.53,27.56a19.51,19.51,0,0,1,3,7.83C307.2,61,316.37,45.43,313,31.81Z"/></g></g></svg>
